<?xml version="1.0" encoding="UTF-8" standalone="no"?>
<svg
   xmlns:dc="http://purl.org/dc/elements/1.1/"
   xmlns:cc="http://creativecommons.org/ns#"
   xmlns:rdf="http://www.w3.org/1999/02/22-rdf-syntax-ns#"
   xmlns:svg="http://www.w3.org/2000/svg"
   xmlns="http://www.w3.org/2000/svg"
   version="1.1"
   id="svg2"
   viewBox="0 0 744.09448819 1052.3622047"
   height="297mm"
   width="210mm">
  <defs
     id="defs4" />
  <metadata
     id="metadata7">
    <rdf:RDF>
      <cc:Work
         rdf:about="">
        <dc:format>image/svg+xml</dc:format>
        <dc:type
           rdf:resource="http://purl.org/dc/dcmitype/StillImage" />
        <dc:title></dc:title>
      </cc:Work>
    </rdf:RDF>
  </metadata>
  <g
     id="layer1">
    <circle
       r="247.92206"
       cy="524.19257"
       cx="390.31479"
       id="path4198"
       style="opacity:1;fill:#4abc96;fill-opacity:1;stroke:#000000;stroke-width:0.3;stroke-linecap:round;stroke-linejoin:round;stroke-miterlimit:4;stroke-dasharray:none;stroke-opacity:1" />
    <path
       id="path4210"
       d="m 379.375,378.34435 c 6.65545,-2.12808 12.99819,-4.77119 23.57143,-0.44643 l 112.5407,52.26015 c 13.42905,6.74743 16.30844,15.16059 17.07786,23.90691 l 0.29215,140.79722 c -0.34839,12.87336 -4.67771,13.44209 -8.82396,16.11476 L 410.35714,662.3622 c -17.30862,7.87133 -26.05148,4.15369 -35,0.71429 L 263.21429,613.43363 c -7.93102,-3.52576 -13.00364,-9.52368 -13.12501,-18.30357 l 0.0893,-136.42857 c 0.55629,-12.05978 5.84438,-22.24316 20.17856,-28.83929 z"
       style="fill:#b3b3b3;fill-rule:evenodd;stroke:#000000;stroke-width:0.3;stroke-linecap:butt;stroke-linejoin:miter;stroke-opacity:1;opacity:1;stroke-miterlimit:4;stroke-dasharray:none" />
    <g
       id="g4336">
      <path
         style="fill:#f9f9f9;fill-rule:evenodd;stroke:#000000;stroke-width:0.3;stroke-linecap:butt;stroke-linejoin:miter;stroke-opacity:1;opacity:1;stroke-miterlimit:4;stroke-dasharray:none"
         d="m 395.22218,644.51311 c 0.3997,7.47632 2.77665,13.08948 11.8693,12.37437 l 110.86424,-49.75001 c 5.63704,-2.72543 8.43906,-6.48178 8.83883,-11.11168 L 526.42857,466.1122 c -1.17166,-14.18094 -8.1157,-14.15293 -15.35714,-13.39285 l -97.32143,43.75 c -15.78442,7.70305 -18.69766,18.5264 -18.92857,30 z"
         id="path4204" />
      <path
         style="fill:#f9f9f9;fill-rule:evenodd;stroke:#000000;stroke-width:0.3;stroke-linecap:butt;stroke-linejoin:miter;stroke-opacity:1;opacity:1;stroke-miterlimit:4;stroke-dasharray:none"
         d="m 257.10811,466.37809 c 0.47113,-14.28401 8.61329,-14.34856 18.76705,-10.68428 l 93.84067,41.08449 c 11.79612,5.22943 16.98392,13.46263 17.67767,23.73859 l 0.25254,122.481 c -0.9375,10.874 -7.20786,14.30778 -15.15229,12.37436 L 266.93281,608.14762 c -7.28331,-3.76508 -10.89921,-9.45119 -11.11168,-16.92005 z"
         id="path4206" />
      <path
         style="fill:#f9f9f9;fill-rule:evenodd;stroke:#000000;stroke-width:0.3;stroke-linecap:butt;stroke-linejoin:miter;stroke-opacity:1;opacity:1;stroke-miterlimit:4;stroke-dasharray:none"
         d="m 282.96898,429.22435 c -12.67625,5.53959 -16.76362,11.45642 -0.50507,18.18275 l 92.05015,42.55267 c 14.56763,6.40625 24.32154,3.78679 33.58757,0.25254 l 95.71195,-44.69925 c 5.4454,-2.67906 16.69207,-5.73994 -0.75761,-14.64721 l -96.72211,-45.20433 c -12.19164,-5.30753 -21.1119,-3.68743 -29.29442,-0.50507 z"
         id="path4208" />
    </g>
    <g
       style="fill:#999999;stroke-width:0.3;stroke-miterlimit:4;stroke-dasharray:none"
       id="g4311">
      <ellipse
         style="opacity:1;fill:#999999;fill-opacity:1;stroke:#000000;stroke-width:0.3;stroke-linecap:round;stroke-linejoin:round;stroke-miterlimit:4;stroke-dasharray:none;stroke-opacity:1"
         id="path4212"
         cx="329.6254"
         cy="433.07556"
         rx="17.332315"
         ry="10.387517" />
      <ellipse
         style="opacity:1;fill:#999999;fill-opacity:1;stroke:#000000;stroke-width:0.3;stroke-linecap:round;stroke-linejoin:round;stroke-miterlimit:4;stroke-dasharray:none;stroke-opacity:1"
         id="path4212-3"
         cx="365.17859"
         cy="449.68362"
         rx="17.332315"
         ry="10.387517" />
      <ellipse
         style="opacity:1;fill:#999999;fill-opacity:1;stroke:#000000;stroke-width:0.3;stroke-linecap:round;stroke-linejoin:round;stroke-miterlimit:4;stroke-dasharray:none;stroke-opacity:1"
         id="path4212-6"
         cx="400.53571"
         cy="465.57651"
         rx="17.332315"
         ry="10.387517" />
      <ellipse
         style="opacity:1;fill:#999999;fill-opacity:1;stroke:#000000;stroke-width:0.3;stroke-linecap:round;stroke-linejoin:round;stroke-miterlimit:4;stroke-dasharray:none;stroke-opacity:1"
         id="path4212-7"
         cx="457.14285"
         cy="440.93362"
         rx="17.332315"
         ry="10.387517" />
      <ellipse
         style="opacity:1;fill:#999999;fill-opacity:1;stroke:#000000;stroke-width:0.3;stroke-linecap:round;stroke-linejoin:round;stroke-miterlimit:4;stroke-dasharray:none;stroke-opacity:1"
         id="path4212-5"
         cx="421.07141"
         cy="424.68362"
         rx="17.332315"
         ry="10.387517" />
      <ellipse
         style="opacity:1;fill:#999999;fill-opacity:1;stroke:#000000;stroke-width:0.3;stroke-linecap:round;stroke-linejoin:round;stroke-miterlimit:4;stroke-dasharray:none;stroke-opacity:1"
         id="path4212-35"
         cx="385.71426"
         cy="408.61218"
         rx="17.332315"
         ry="10.387517" />
      <ellipse
         style="opacity:1;fill:#999999;fill-opacity:1;stroke:#000000;stroke-width:0.3;stroke-linecap:round;stroke-linejoin:round;stroke-miterlimit:4;stroke-dasharray:none;stroke-opacity:1"
         id="path4253"
         cx="422.33844"
         cy="532.76495"
         rx="14.184514"
         ry="15.099965" />
      <ellipse
         style="opacity:1;fill:#999999;fill-opacity:1;stroke:#000000;stroke-width:0.3;stroke-linecap:round;stroke-linejoin:round;stroke-miterlimit:4;stroke-dasharray:none;stroke-opacity:1"
         id="path4253-6"
         cx="462.85715"
         cy="556.64795"
         rx="14.184514"
         ry="15.099965" />
      <ellipse
         style="opacity:1;fill:#999999;fill-opacity:1;stroke:#000000;stroke-width:0.3;stroke-linecap:round;stroke-linejoin:round;stroke-miterlimit:4;stroke-dasharray:none;stroke-opacity:1"
         id="path4253-2"
         cx="502.85715"
         cy="581.82648"
         rx="14.184514"
         ry="15.099965" />
      <ellipse
         style="opacity:1;fill:#999999;fill-opacity:1;stroke:#000000;stroke-width:0.3;stroke-linecap:round;stroke-linejoin:round;stroke-miterlimit:4;stroke-dasharray:none;stroke-opacity:1"
         id="path4276"
         cx="286.8833"
         cy="499.05115"
         rx="13.572388"
         ry="15.087615" />
      <ellipse
         style="opacity:1;fill:#999999;fill-opacity:1;stroke:#000000;stroke-width:0.3;stroke-linecap:round;stroke-linejoin:round;stroke-miterlimit:4;stroke-dasharray:none;stroke-opacity:1"
         id="path4276-9"
         cx="356.81607"
         cy="524.30499"
         rx="13.572388"
         ry="15.087615" />
      <ellipse
         style="opacity:1;fill:#999999;fill-opacity:1;stroke:#000000;stroke-width:0.3;stroke-linecap:round;stroke-linejoin:round;stroke-miterlimit:4;stroke-dasharray:none;stroke-opacity:1"
         id="path4276-1"
         cx="317.44046"
         cy="554.6095"
         rx="13.572388"
         ry="15.087615" />
      <ellipse
         style="opacity:1;fill:#999999;fill-opacity:1;stroke:#000000;stroke-width:0.3;stroke-linecap:round;stroke-linejoin:round;stroke-miterlimit:4;stroke-dasharray:none;stroke-opacity:1"
         id="path4276-2"
         cx="350.27039"
         cy="611.68317"
         rx="13.572388"
         ry="15.087615" />
      <ellipse
         style="opacity:1;fill:#999999;fill-opacity:1;stroke:#000000;stroke-width:0.3;stroke-linecap:round;stroke-linejoin:round;stroke-miterlimit:4;stroke-dasharray:none;stroke-opacity:1"
         id="path4276-7"
         cx="280.06479"
         cy="585.16663"
         rx="13.572388"
         ry="15.087615" />
    </g>
  </g>
</svg>
